# xmcd CD database file
#
# Track frame offsets:
#	150
#	16027
#	34558
#	50142
#	64313
#	88318
#	106125
#	130030
#	150579
#	171281
#	184180
#	199937
#	223335
#	241023
#	253500
#
# Disc length: 3603 seconds
#
# Revision: 2
# Processed by: cddbd v1.5.2PL0 Copyright (c) Steve Scherf et al.
# Submitted via: CDex 1.51
#
DISCID=ce0e110f
DTITLE=布萊恩&李育亭 - 戀人二重奏
DYEAR=2007
DGENRE=New Age
TTITLE0=Moonrise/月昇
TTITLE1=Song For Sienna/席安娜之歌 
TTITLE2=Rolling Clouds/奔跑的雲
TTITLE3=Lavender Hills/薰衣草山丘
TTITLE4=Andante Cantabile/花開夢醒
TTITLE5=Early Light/晨光
TTITLE6=Andante Affettuoso/雨聲巷
TTITLE7=Spring Waltz/春天圓舞曲 
TTITLE8=A Walk In The Forest/森林漫步
TTITLE9=Kindred Spirits/知心伴侶 
TTITLE10=Across The Bay/飛越海灣
TTITLE11=Northern Sky/北方天空
TTITLE12=One Morning In June/六月清晨柔
TTITLE13=Tribute To Dax Johnson/獻給達斯•強森
TTITLE14=Butterfly Waltz/白蝶之舞 
EXTD=YEAR: 2007
EXTT0=
EXTT1=
EXTT2=
EXTT3=
EXTT4=
EXTT5=
EXTT6=
EXTT7=
EXTT8=
EXTT9=
EXTT10=
EXTT11=
EXTT12=
EXTT13=
EXTT14=
PLAYORDER=
